<svg width="236" height="229" viewBox="0 0 236 229" fill="none" xmlns="http://www.w3.org/2000/svg">
<g clip-path="url(#clip0_197_2)">
<path d="M220.519 0H15C7.26801 0 1 6.26802 1 14V73.5C1 81.232 7.26801 87.5 15 87.5H108.999C111.298 87.5 113.561 86.934 115.589 85.8519L227.109 26.3519C239.967 19.4918 235.092 0 220.519 0Z" fill="#4770FF"/>
<path d="M15.9812 228.5H221.5C229.232 228.5 235.5 222.232 235.5 214.5V155C235.5 147.268 229.232 141 221.5 141H127.501C125.202 141 122.939 141.566 120.911 142.648L9.39099 202.148C-3.46672 209.008 1.40787 228.5 15.9812 228.5Z" fill="#4770FF"/>
<rect x="227.806" y="42.8384" width="22" height="261.46" rx="11" transform="rotate(61.56 227.806 42.8384)" fill="#4770FF"/>
</g>
<defs>
<clipPath id="clip0_197_2">
<rect width="236" height="229" fill="white"/>
</clipPath>
</defs>
</svg>
